<?xml version="1.0" encoding="iso-8859-1"?>
<!-- Generator: Adobe Illustrator 19.0.0, SVG Export Plug-In . SVG Version: 6.00 Build 0)  -->
<svg version="1.1" id="Capa_1" xmlns="http://www.w3.org/2000/svg" xmlns:xlink="http://www.w3.org/1999/xlink" x="0px" y="0px"
	 viewBox="0 0 512 512" style="enable-background:new 0 0 512 512;" xml:space="preserve">
<path style="fill:#CDD6E0;" d="M362.667,132.267H149.333C75.733,132.267,17.067,72.533,17.067,0l0,0h477.867l0,0
	C494.933,72.533,436.267,132.267,362.667,132.267z"/>
<g>
	<rect x="48" y="496" style="fill:#ACB3BA;" width="68.267" height="16"/>
	<rect x="396.8" y="496" style="fill:#ACB3BA;" width="68.267" height="16"/>
</g>
<path style="fill:#F2F2F2;" d="M512,496H0v-69.333c0-140.8,114.133-256,256-256l0,0c140.8,0,256,114.133,256,256V496z"/>
<rect y="449.067" style="fill:#CDD6E0;" width="512" height="45.867"/>
<circle style="fill:#4CDBC4;" cx="256" cy="310.4" r="99.2"/>
<g>
	<path style="fill:#F2F2F2;" d="M256,221.867c-1.067,0-1.067,1.067-1.067,1.067v16C254.933,240,256,240,256,240l1.067-1.067v-16
		C257.067,222.933,257.067,221.867,256,221.867z"/>
	<path style="fill:#F2F2F2;" d="M317.867,247.467c-1.067-1.067-1.067-1.067-2.133,0L304,259.2c-1.067,1.067-1.067,1.067,0,2.133
		c1.067,1.067,1.067,1.067,2.133,0l11.733-11.733C318.933,249.6,318.933,248.533,317.867,247.467z"/>
	<path style="fill:#F2F2F2;" d="M208,358.4c-1.067-1.067-1.067-1.067-2.133,0l-11.733,11.733c-1.067,1.067-1.067,1.067,0,2.133
		c1.067,1.067,1.067,1.067,2.133,0L208,360.533C208,359.467,208,359.467,208,358.4z"/>
	<path style="fill:#F2F2F2;" d="M344.533,310.4c0-1.067-1.067-1.067-1.067-1.067h-16c-1.067,0-1.067,1.067-1.067,1.067l1.067,1.067
		h16L344.533,310.4z"/>
	<path style="fill:#F2F2F2;" d="M187.733,310.4c0-1.067-1.067-1.067-1.067-1.067h-16c-1.067,0-1.067,1.067-1.067,1.067l1.067,1.067
		h16L187.733,310.4z"/>
	<path style="fill:#F2F2F2;" d="M317.867,372.267c1.067-1.067,1.067-1.067,0-2.133L306.133,358.4c-1.067-1.067-1.067-1.067-2.133,0
		c-1.067,1.067-1.067,1.067,0,2.133l11.733,11.733C316.8,372.267,317.867,372.267,317.867,372.267z"/>
	<path style="fill:#F2F2F2;" d="M208,261.333c1.067-1.067,1.067-1.067,0-2.133l-11.733-11.733c-1.067-1.067-1.067-1.067-2.133,0
		c-1.067,1.067-1.067,1.067,0,2.133l11.733,11.733C205.867,262.4,206.933,262.4,208,261.333z"/>
</g>
<path style="fill:#40596B;" d="M244.267,327.467c7.467,8.533,20.267,9.6,28.8,2.133c8.533-7.467,9.6-20.267,2.133-28.8
	c-7.467-8.533-53.333-29.867-53.333-29.867S236.8,318.933,244.267,327.467z"/>
<circle style="fill:#FFFFFF;" cx="259.2" cy="313.6" r="8.533"/>
<path style="fill:#FFD15C;" d="M298.667,132.267v41.6c-13.867-2.133-28.8-3.2-42.667-3.2c-14.933,0-28.8,1.067-42.667,3.2v-41.6
	H298.667z"/>
<rect x="213.333" y="132.267" style="fill:#F8B64C;" width="86.4" height="16"/>
<g>
</g>
<g>
</g>
<g>
</g>
<g>
</g>
<g>
</g>
<g>
</g>
<g>
</g>
<g>
</g>
<g>
</g>
<g>
</g>
<g>
</g>
<g>
</g>
<g>
</g>
<g>
</g>
<g>
</g>
</svg>
